<svg width="24" height="24" viewBox="0 0 24 24" fill="none" xmlns="http://www.w3.org/2000/svg">
<path d="M7.00001 13L14.59 13L11.29 16.29C11.1017 16.4783 10.9959 16.7337 10.9959 17C10.9959 17.2663 11.1017 17.5217 11.29 17.71C11.4783 17.8983 11.7337 18.0041 12 18.0041C12.2663 18.0041 12.5217 17.8983 12.71 17.71L17.71 12.71C17.8011 12.6149 17.8724 12.5027 17.92 12.38C18.02 12.1365 18.02 11.8635 17.92 11.62C17.8724 11.4972 17.8011 11.3851 17.71 11.29L12.71 6.29C12.617 6.19627 12.5064 6.12188 12.3846 6.07111C12.2627 6.02034 12.132 5.9942 12 5.9942C11.868 5.9942 11.7373 6.02034 11.6154 6.07111C11.4936 6.12188 11.383 6.19627 11.29 6.29C11.1963 6.38296 11.1219 6.49356 11.0711 6.61542C11.0204 6.73728 10.9942 6.86799 10.9942 7C10.9942 7.13201 11.0204 7.26272 11.0711 7.38458C11.1219 7.50644 11.1963 7.61703 11.29 7.71L14.59 11L7.00001 11C6.73479 11 6.48044 11.1054 6.2929 11.2929C6.10537 11.4804 6.00001 11.7348 6.00001 12C6.00001 12.2652 6.10537 12.5196 6.2929 12.7071C6.48044 12.8946 6.7348 13 7.00001 13Z" fill="#EDEEF2"/>
</svg>
