<svg width="23" height="28" viewBox="0 0 23 28" fill="none" xmlns="http://www.w3.org/2000/svg">
<path d="M11.8414 6.46154C13.1172 6.46154 14.7164 5.60712 15.6687 4.4679C16.5312 3.43547 17.1602 1.99364 17.1602 0.551812C17.1602 0.356008 17.1422 0.160203 17.1062 0C15.6867 0.0534012 13.9797 0.943421 12.9555 2.13605C12.1469 3.04387 11.4102 4.4679 11.4102 5.92753C11.4102 6.14113 11.4461 6.35474 11.4641 6.42594C11.5539 6.44374 11.6977 6.46154 11.8414 6.46154ZM7.34922 28C9.09219 28 9.86484 26.843 12.0391 26.843C14.2492 26.843 14.7344 27.9644 16.675 27.9644C18.5797 27.9644 19.8555 26.22 21.0594 24.5111C22.407 22.5531 22.9641 20.6306 23 20.5416C22.8742 20.506 19.2266 19.0286 19.2266 14.8811C19.2266 11.2854 22.1016 9.66561 22.2633 9.541C20.3586 6.83535 17.4656 6.76414 16.675 6.76414C14.5367 6.76414 12.7937 8.04577 11.6977 8.04577C10.5117 8.04577 8.94844 6.83535 7.09766 6.83535C3.57578 6.83535 0 9.71901 0 15.1659C0 18.548 1.32969 22.1259 2.96484 24.4399C4.36641 26.398 5.58828 28 7.34922 28Z" fill="#000100"/>
</svg>
