<svg width="28" height="28" viewBox="0 0 28 28" fill="none" xmlns="http://www.w3.org/2000/svg">
<path fill-rule="evenodd" clip-rule="evenodd" d="M27.44 14.3182C27.44 13.3255 27.3509 12.3709 27.1855 11.4546H14V16.87H21.5345C21.21 18.62 20.2236 20.1027 18.7409 21.0955V24.6082H23.2655C25.9127 22.1709 27.44 18.5818 27.44 14.3182Z" fill="#4285F4"/>
<path fill-rule="evenodd" clip-rule="evenodd" d="M14 28C17.78 28 20.9491 26.7464 23.2655 24.6082L18.7409 21.0955C17.4873 21.9355 15.8837 22.4318 14 22.4318C10.3537 22.4318 7.26729 19.9691 6.16638 16.66H1.48911V20.2873C3.79274 24.8627 8.52729 28 14 28Z" fill="#34A853"/>
<path fill-rule="evenodd" clip-rule="evenodd" d="M6.16637 16.66C5.88637 15.82 5.72727 14.9227 5.72727 14C5.72727 13.0773 5.88637 12.18 6.16637 11.34V7.71274H1.48909C0.540909 9.60274 0 11.7409 0 14C0 16.2591 0.540909 18.3973 1.48909 20.2873L6.16637 16.66Z" fill="#FBBC05"/>
<path fill-rule="evenodd" clip-rule="evenodd" d="M14 5.56818C16.0555 5.56818 17.9009 6.27455 19.3518 7.66182L23.3673 3.64637C20.9427 1.38727 17.7737 0 14 0C8.52729 0 3.79274 3.13727 1.48911 7.71273L6.16638 11.34C7.26729 8.03091 10.3537 5.56818 14 5.56818Z" fill="#EA4335"/>
</svg>
